<?xml version="1.0" encoding="utf-8"?>
<!-- Generator: Adobe Illustrator 19.0.0, SVG Export Plug-In . SVG Version: 6.00 Build 0)  -->
<svg version="1.1" xmlns="http://www.w3.org/2000/svg" xmlns:xlink="http://www.w3.org/1999/xlink" x="0px" y="0px"
	 viewBox="0 0 1080 1080" style="enable-background:new 0 0 1080 1080;" xml:space="preserve">
<style type="text/css">
	.st0{display:none;}
	.st1{display:inline;fill:#FFFFFF;stroke:#000000;stroke-miterlimit:10;}
	.st2{display:inline;fill:none;stroke:#000000;stroke-miterlimit:10;}
	.st3{fill:#FFFFFF;}
</style>
<g id="Layer_1" class="st0">
	<rect id="XMLID_1_" class="st1" width="1080" height="1080"/>
	<line id="XMLID_2_" class="st2" x1="0" y1="540.5" x2="1080" y2="540.5"/>
	<line id="XMLID_3_" class="st2" x1="539.5" y1="0" x2="539.5" y2="1080"/>
	<rect id="XMLID_4_" y="540" class="st2" width="540" height="540"/>
	<rect id="XMLID_5_" x="0" y="810" class="st2" width="270" height="270"/>
	<rect id="XMLID_9_" x="0" y="0" class="st2" width="270" height="270"/>
	<line id="XMLID_6_" class="st2" x1="269.5" y1="0" x2="269.5" y2="1080"/>
	<rect id="XMLID_14_" x="540" y="540" class="st2" width="540" height="540"/>
	<rect id="XMLID_13_" x="540" y="810" class="st2" width="270" height="270"/>
	<rect id="XMLID_12_" x="540" y="0" class="st2" width="270" height="270"/>
	<line id="XMLID_11_" class="st2" x1="809.5" y1="0" x2="809.5" y2="1080"/>
	<line id="XMLID_7_" class="st2" x1="0" y1="810.5" x2="1080" y2="810.5"/>
	<line id="XMLID_8_" class="st2" x1="0" y1="270.5" x2="1080" y2="270.5"/>
	<rect id="XMLID_10_" x="0" y="270.5" class="st2" width="135" height="135"/>
	<rect id="XMLID_16_" x="-252" y="270.5" class="st2" width="135" height="135"/>
</g>
<g id="Layer_2">
	<path id="XMLID_15_" class="st3" d="M-43,881c54.3-64.9,173.2-58.1,280-52c102.7,5.9,106.6,24.7,200,28
		c154.5,5.5,151.8-45.6,276-36c144.1,11.2,188.5,83.1,312,56c29.9-6.6,51.7-16.2,72-4c51.3,30.8,36.1,167.4,8,232
		c-120.9,278-963.3,333.4-1140,32C-78.3,1063.1-95.6,943.9-43,881z"/>
</g>
</svg>
